<svg width="18" height="18" viewBox="0 0 18 18" fill="none" xmlns="http://www.w3.org/2000/svg">
<path d="M5.28907 16.1951C5.38962 16.1783 5.49289 16.1927 5.58503 16.2363C6.64353 16.7369 7.80307 17 9.00093 17C13.4192 17 17.0009 13.4183 17.0009 9C17.0009 4.58172 13.4192 1 9.00093 1C4.58265 1 1.00093 4.58172 1.00093 9C1.00093 10.7069 1.53621 12.3319 2.51547 13.685C2.62103 13.8308 2.64002 14.0222 2.56518 14.1859L1.34674 16.8521L5.28907 16.1951ZM0.583125 17.9932C0.187913 18.0591 -0.120373 17.6566 0.0461627 17.2922L1.53685 14.0302C0.542359 12.5576 0.000925163 10.819 0.000925163 9C0.000925163 4.02944 4.03036 0 9.00093 0C13.9715 0 18.0009 4.02944 18.0009 9C18.0009 13.9706 13.9715 18 9.00093 18C7.70845 18 6.45379 17.7271 5.30146 17.2068L0.583125 17.9932Z" fill="black"/>
</svg>
