<svg width="21" height="20" viewBox="0 0 21 20" fill="none" xmlns="http://www.w3.org/2000/svg">
<path d="M19.6746 19.3796C19.8843 19.5593 20.1999 19.5351 20.3796 19.3254C20.5593 19.1157 20.5351 18.8001 20.3254 18.6204L19.6746 19.3796ZM12.6746 13.3796L19.6746 19.3796L20.3254 18.6204L13.3254 12.6204L12.6746 13.3796ZM12.6464 3.35355C15.2126 5.91971 15.2126 10.0803 12.6464 12.6464L13.3536 13.3536C16.3102 10.3969 16.3102 5.60313 13.3535 2.64644L12.6464 3.35355ZM2.64644 13.3536C5.60313 16.3102 10.3969 16.3102 13.3536 13.3536L12.6464 12.6464C10.0803 15.2126 5.91971 15.2126 3.35355 12.6464L2.64644 13.3536ZM2.64644 2.64645C-0.31024 5.60313 -0.310241 10.3969 2.64644 13.3536L3.35355 12.6464C0.78739 10.0803 0.787391 5.91972 3.35355 3.35355L2.64644 2.64645ZM3.35355 3.35355C5.91971 0.787393 10.0803 0.787392 12.6464 3.35355L13.3535 2.64644C10.3969 -0.31024 5.60313 -0.310238 2.64644 2.64645L3.35355 3.35355Z" fill="black"/>
</svg>
